<mxfile host="app.diagrams.net" modified="2024-03-19T19:30:47.488Z" agent="Mozilla/5.0 (Windows NT 10.0; Win64; x64) AppleWebKit/537.36 (KHTML, like Gecko) Chrome/122.0.0.0 Safari/537.36" etag="sa6MmasqQHHcySzyVTXC" version="24.0.7" type="device">
  <diagram id="C5RBs43oDa-KdzZeNtuy" name="Page-1">
    <mxGraphModel dx="2206" dy="780" grid="1" gridSize="10" guides="1" tooltips="1" connect="1" arrows="1" fold="1" page="1" pageScale="1" pageWidth="827" pageHeight="1169" math="0" shadow="0">
      <root>
        <mxCell id="WIyWlLk6GJQsqaUBKTNV-0" />
        <mxCell id="WIyWlLk6GJQsqaUBKTNV-1" parent="WIyWlLk6GJQsqaUBKTNV-0" />
        <mxCell id="JpgJC43LP2yugee_lsow-0" style="edgeStyle=orthogonalEdgeStyle;rounded=0;orthogonalLoop=1;jettySize=auto;html=1;exitX=0.75;exitY=1;exitDx=0;exitDy=0;entryX=0.5;entryY=0;entryDx=0;entryDy=0;" edge="1" parent="WIyWlLk6GJQsqaUBKTNV-1" source="JpgJC43LP2yugee_lsow-48" target="JpgJC43LP2yugee_lsow-8">
          <mxGeometry relative="1" as="geometry">
            <Array as="points">
              <mxPoint x="384" y="360" />
              <mxPoint x="420" y="360" />
            </Array>
          </mxGeometry>
        </mxCell>
        <mxCell id="JpgJC43LP2yugee_lsow-1" value="storeLongTerm()" style="edgeLabel;html=1;align=center;verticalAlign=middle;resizable=0;points=[];" vertex="1" connectable="0" parent="JpgJC43LP2yugee_lsow-0">
          <mxGeometry x="0.2848" relative="1" as="geometry">
            <mxPoint x="-28" as="offset" />
          </mxGeometry>
        </mxCell>
        <mxCell id="JpgJC43LP2yugee_lsow-2" value="" style="edgeStyle=orthogonalEdgeStyle;rounded=0;orthogonalLoop=1;jettySize=auto;html=1;exitX=0.286;exitY=0.999;exitDx=0;exitDy=0;exitPerimeter=0;" edge="1" parent="WIyWlLk6GJQsqaUBKTNV-1" source="JpgJC43LP2yugee_lsow-48" target="JpgJC43LP2yugee_lsow-5">
          <mxGeometry relative="1" as="geometry">
            <Array as="points">
              <mxPoint x="310" y="360" />
              <mxPoint x="270" y="360" />
            </Array>
          </mxGeometry>
        </mxCell>
        <mxCell id="JpgJC43LP2yugee_lsow-3" value="storeShortTerm()" style="edgeLabel;html=1;align=center;verticalAlign=middle;resizable=0;points=[];" vertex="1" connectable="0" parent="JpgJC43LP2yugee_lsow-2">
          <mxGeometry x="0.1854" y="-1" relative="1" as="geometry">
            <mxPoint x="11" y="1" as="offset" />
          </mxGeometry>
        </mxCell>
        <mxCell id="JpgJC43LP2yugee_lsow-4" style="edgeStyle=orthogonalEdgeStyle;rounded=0;orthogonalLoop=1;jettySize=auto;html=1;exitX=1;exitY=0.5;exitDx=0;exitDy=0;entryX=0;entryY=0.5;entryDx=0;entryDy=0;" edge="1" parent="WIyWlLk6GJQsqaUBKTNV-1" source="JpgJC43LP2yugee_lsow-5" target="JpgJC43LP2yugee_lsow-48">
          <mxGeometry relative="1" as="geometry">
            <mxPoint x="264" y="190" as="targetPoint" />
            <Array as="points">
              <mxPoint x="344" y="440" />
              <mxPoint x="344" y="290" />
            </Array>
          </mxGeometry>
        </mxCell>
        <mxCell id="JpgJC43LP2yugee_lsow-5" value="React States" style="ellipse;whiteSpace=wrap;html=1;" vertex="1" parent="WIyWlLk6GJQsqaUBKTNV-1">
          <mxGeometry x="210" y="400" width="120" height="80" as="geometry" />
        </mxCell>
        <mxCell id="JpgJC43LP2yugee_lsow-6" style="edgeStyle=orthogonalEdgeStyle;rounded=0;orthogonalLoop=1;jettySize=auto;html=1;exitX=0;exitY=0.5;exitDx=0;exitDy=0;entryX=0.5;entryY=1;entryDx=0;entryDy=0;endArrow=classic;endFill=1;" edge="1" parent="WIyWlLk6GJQsqaUBKTNV-1" source="JpgJC43LP2yugee_lsow-8" target="JpgJC43LP2yugee_lsow-48">
          <mxGeometry relative="1" as="geometry">
            <Array as="points">
              <mxPoint x="344" y="440" />
            </Array>
            <mxPoint x="352" y="430.0000000000001" as="sourcePoint" />
            <mxPoint x="336" y="310" as="targetPoint" />
          </mxGeometry>
        </mxCell>
        <mxCell id="JpgJC43LP2yugee_lsow-7" value="retrieveData()" style="edgeLabel;html=1;align=center;verticalAlign=middle;resizable=0;points=[];" vertex="1" connectable="0" parent="JpgJC43LP2yugee_lsow-6">
          <mxGeometry x="-0.1295" y="1" relative="1" as="geometry">
            <mxPoint x="1" y="3" as="offset" />
          </mxGeometry>
        </mxCell>
        <mxCell id="JpgJC43LP2yugee_lsow-8" value="Browser Cache" style="ellipse;whiteSpace=wrap;html=1;" vertex="1" parent="WIyWlLk6GJQsqaUBKTNV-1">
          <mxGeometry x="360" y="400" width="120" height="80" as="geometry" />
        </mxCell>
        <mxCell id="JpgJC43LP2yugee_lsow-9" style="edgeStyle=orthogonalEdgeStyle;rounded=0;orthogonalLoop=1;jettySize=auto;html=1;exitX=0;exitY=0.5;exitDx=0;exitDy=0;entryX=1;entryY=0.25;entryDx=0;entryDy=0;" edge="1" parent="WIyWlLk6GJQsqaUBKTNV-1" source="JpgJC43LP2yugee_lsow-11" target="JpgJC43LP2yugee_lsow-48">
          <mxGeometry relative="1" as="geometry">
            <Array as="points">
              <mxPoint x="444" y="140" />
              <mxPoint x="444" y="275" />
            </Array>
          </mxGeometry>
        </mxCell>
        <mxCell id="JpgJC43LP2yugee_lsow-10" value="subscribe()" style="edgeLabel;html=1;align=center;verticalAlign=middle;resizable=0;points=[];" vertex="1" connectable="0" parent="JpgJC43LP2yugee_lsow-9">
          <mxGeometry x="-0.7279" y="-1" relative="1" as="geometry">
            <mxPoint x="-13" y="1" as="offset" />
          </mxGeometry>
        </mxCell>
        <mxCell id="JpgJC43LP2yugee_lsow-89" style="edgeStyle=orthogonalEdgeStyle;rounded=0;orthogonalLoop=1;jettySize=auto;html=1;exitX=0;exitY=0.25;exitDx=0;exitDy=0;entryX=0.75;entryY=1;entryDx=0;entryDy=0;" edge="1" parent="WIyWlLk6GJQsqaUBKTNV-1" source="JpgJC43LP2yugee_lsow-11" target="JpgJC43LP2yugee_lsow-58">
          <mxGeometry relative="1" as="geometry" />
        </mxCell>
        <mxCell id="JpgJC43LP2yugee_lsow-91" value="initializeApp()" style="edgeLabel;html=1;align=center;verticalAlign=middle;resizable=0;points=[];" vertex="1" connectable="0" parent="JpgJC43LP2yugee_lsow-89">
          <mxGeometry x="-0.0612" relative="1" as="geometry">
            <mxPoint as="offset" />
          </mxGeometry>
        </mxCell>
        <mxCell id="JpgJC43LP2yugee_lsow-11" value="Handler_Environment" style="rounded=0;whiteSpace=wrap;html=1;" vertex="1" parent="WIyWlLk6GJQsqaUBKTNV-1">
          <mxGeometry x="564" y="110" width="160" height="60" as="geometry" />
        </mxCell>
        <mxCell id="JpgJC43LP2yugee_lsow-12" style="edgeStyle=orthogonalEdgeStyle;rounded=0;orthogonalLoop=1;jettySize=auto;html=1;exitX=0;exitY=0.25;exitDx=0;exitDy=0;" edge="1" parent="WIyWlLk6GJQsqaUBKTNV-1" source="JpgJC43LP2yugee_lsow-14">
          <mxGeometry relative="1" as="geometry">
            <mxPoint x="424" y="290" as="targetPoint" />
            <Array as="points">
              <mxPoint x="474" y="235" />
              <mxPoint x="474" y="290" />
            </Array>
          </mxGeometry>
        </mxCell>
        <mxCell id="JpgJC43LP2yugee_lsow-13" value="subscribe()" style="edgeLabel;html=1;align=center;verticalAlign=middle;resizable=0;points=[];" vertex="1" connectable="0" parent="JpgJC43LP2yugee_lsow-12">
          <mxGeometry x="-0.5114" y="1" relative="1" as="geometry">
            <mxPoint as="offset" />
          </mxGeometry>
        </mxCell>
        <mxCell id="JpgJC43LP2yugee_lsow-14" value="Handler_Error" style="rounded=0;whiteSpace=wrap;html=1;" vertex="1" parent="WIyWlLk6GJQsqaUBKTNV-1">
          <mxGeometry x="564" y="220" width="160" height="60" as="geometry" />
        </mxCell>
        <mxCell id="JpgJC43LP2yugee_lsow-15" style="edgeStyle=orthogonalEdgeStyle;rounded=0;orthogonalLoop=1;jettySize=auto;html=1;exitX=0;exitY=0.25;exitDx=0;exitDy=0;entryX=1;entryY=0.75;entryDx=0;entryDy=0;" edge="1" parent="WIyWlLk6GJQsqaUBKTNV-1" source="JpgJC43LP2yugee_lsow-17" target="JpgJC43LP2yugee_lsow-48">
          <mxGeometry relative="1" as="geometry">
            <Array as="points">
              <mxPoint x="444" y="345" />
              <mxPoint x="444" y="305" />
            </Array>
          </mxGeometry>
        </mxCell>
        <mxCell id="JpgJC43LP2yugee_lsow-16" value="susbcribe()" style="edgeLabel;html=1;align=center;verticalAlign=middle;resizable=0;points=[];" vertex="1" connectable="0" parent="JpgJC43LP2yugee_lsow-15">
          <mxGeometry x="-0.6462" y="-2" relative="1" as="geometry">
            <mxPoint x="-17" as="offset" />
          </mxGeometry>
        </mxCell>
        <mxCell id="JpgJC43LP2yugee_lsow-17" value="Handler_API" style="rounded=0;whiteSpace=wrap;html=1;" vertex="1" parent="WIyWlLk6GJQsqaUBKTNV-1">
          <mxGeometry x="564" y="330" width="160" height="60" as="geometry" />
        </mxCell>
        <mxCell id="JpgJC43LP2yugee_lsow-74" style="edgeStyle=orthogonalEdgeStyle;rounded=0;orthogonalLoop=1;jettySize=auto;html=1;exitX=0.25;exitY=1;exitDx=0;exitDy=0;entryX=0.25;entryY=0;entryDx=0;entryDy=0;" edge="1" parent="WIyWlLk6GJQsqaUBKTNV-1" source="JpgJC43LP2yugee_lsow-26" target="JpgJC43LP2yugee_lsow-31">
          <mxGeometry relative="1" as="geometry" />
        </mxCell>
        <mxCell id="JpgJC43LP2yugee_lsow-94" value="Generic&lt;div&gt;Generation&lt;/div&gt;" style="edgeLabel;html=1;align=center;verticalAlign=middle;resizable=0;points=[];" vertex="1" connectable="0" parent="JpgJC43LP2yugee_lsow-74">
          <mxGeometry x="-0.5522" y="2" relative="1" as="geometry">
            <mxPoint x="-2" y="43" as="offset" />
          </mxGeometry>
        </mxCell>
        <mxCell id="JpgJC43LP2yugee_lsow-92" style="edgeStyle=orthogonalEdgeStyle;rounded=0;orthogonalLoop=1;jettySize=auto;html=1;exitX=0.5;exitY=1;exitDx=0;exitDy=0;entryX=0.5;entryY=0;entryDx=0;entryDy=0;" edge="1" parent="WIyWlLk6GJQsqaUBKTNV-1" source="JpgJC43LP2yugee_lsow-26" target="JpgJC43LP2yugee_lsow-31">
          <mxGeometry relative="1" as="geometry" />
        </mxCell>
        <mxCell id="JpgJC43LP2yugee_lsow-93" value="Environment&lt;div&gt;Generation&lt;/div&gt;" style="edgeLabel;html=1;align=center;verticalAlign=middle;resizable=0;points=[];" vertex="1" connectable="0" parent="JpgJC43LP2yugee_lsow-92">
          <mxGeometry x="-0.0005" y="-1" relative="1" as="geometry">
            <mxPoint x="1" y="-130" as="offset" />
          </mxGeometry>
        </mxCell>
        <mxCell id="JpgJC43LP2yugee_lsow-99" style="edgeStyle=orthogonalEdgeStyle;rounded=0;orthogonalLoop=1;jettySize=auto;html=1;exitX=1;exitY=0.75;exitDx=0;exitDy=0;entryX=0.25;entryY=0;entryDx=0;entryDy=0;endArrow=none;endFill=0;startArrow=classic;startFill=1;" edge="1" parent="WIyWlLk6GJQsqaUBKTNV-1" source="JpgJC43LP2yugee_lsow-26" target="JpgJC43LP2yugee_lsow-41">
          <mxGeometry relative="1" as="geometry">
            <Array as="points">
              <mxPoint x="40" y="155" />
              <mxPoint x="40" y="290" />
            </Array>
          </mxGeometry>
        </mxCell>
        <mxCell id="JpgJC43LP2yugee_lsow-103" value="generateFunctions()" style="edgeLabel;html=1;align=center;verticalAlign=middle;resizable=0;points=[];" vertex="1" connectable="0" parent="JpgJC43LP2yugee_lsow-99">
          <mxGeometry x="-0.1336" relative="1" as="geometry">
            <mxPoint x="-40" as="offset" />
          </mxGeometry>
        </mxCell>
        <mxCell id="JpgJC43LP2yugee_lsow-101" style="edgeStyle=orthogonalEdgeStyle;rounded=0;orthogonalLoop=1;jettySize=auto;html=1;exitX=0.75;exitY=1;exitDx=0;exitDy=0;entryX=0.75;entryY=0;entryDx=0;entryDy=0;" edge="1" parent="WIyWlLk6GJQsqaUBKTNV-1" source="JpgJC43LP2yugee_lsow-26" target="JpgJC43LP2yugee_lsow-31">
          <mxGeometry relative="1" as="geometry" />
        </mxCell>
        <mxCell id="JpgJC43LP2yugee_lsow-104" value="Function&lt;div&gt;Results&lt;/div&gt;" style="edgeLabel;html=1;align=center;verticalAlign=middle;resizable=0;points=[];" vertex="1" connectable="0" parent="JpgJC43LP2yugee_lsow-101">
          <mxGeometry x="-0.2778" y="1" relative="1" as="geometry">
            <mxPoint y="2" as="offset" />
          </mxGeometry>
        </mxCell>
        <mxCell id="JpgJC43LP2yugee_lsow-26" value="Component_Generic" style="rounded=0;whiteSpace=wrap;html=1;" vertex="1" parent="WIyWlLk6GJQsqaUBKTNV-1">
          <mxGeometry x="-230" y="110" width="160" height="60" as="geometry" />
        </mxCell>
        <mxCell id="JpgJC43LP2yugee_lsow-95" style="edgeStyle=orthogonalEdgeStyle;rounded=0;orthogonalLoop=1;jettySize=auto;html=1;exitX=0;exitY=0.5;exitDx=0;exitDy=0;entryX=0;entryY=0.5;entryDx=0;entryDy=0;" edge="1" parent="WIyWlLk6GJQsqaUBKTNV-1" source="JpgJC43LP2yugee_lsow-31" target="JpgJC43LP2yugee_lsow-26">
          <mxGeometry relative="1" as="geometry" />
        </mxCell>
        <mxCell id="JpgJC43LP2yugee_lsow-96" value="Children&lt;div&gt;Generation&lt;/div&gt;" style="edgeLabel;html=1;align=center;verticalAlign=middle;resizable=0;points=[];" vertex="1" connectable="0" parent="JpgJC43LP2yugee_lsow-95">
          <mxGeometry x="0.0072" y="1" relative="1" as="geometry">
            <mxPoint y="-128" as="offset" />
          </mxGeometry>
        </mxCell>
        <mxCell id="JpgJC43LP2yugee_lsow-31" value="Component_Rendered" style="rounded=0;whiteSpace=wrap;html=1;" vertex="1" parent="WIyWlLk6GJQsqaUBKTNV-1">
          <mxGeometry x="-230" y="470" width="160" height="60" as="geometry" />
        </mxCell>
        <mxCell id="JpgJC43LP2yugee_lsow-78" style="edgeStyle=orthogonalEdgeStyle;rounded=0;orthogonalLoop=1;jettySize=auto;html=1;exitX=1;exitY=0.25;exitDx=0;exitDy=0;entryX=0;entryY=0.5;entryDx=0;entryDy=0;" edge="1" parent="WIyWlLk6GJQsqaUBKTNV-1" source="JpgJC43LP2yugee_lsow-41" target="JpgJC43LP2yugee_lsow-48">
          <mxGeometry relative="1" as="geometry">
            <Array as="points">
              <mxPoint x="220" y="305" />
              <mxPoint x="220" y="290" />
            </Array>
          </mxGeometry>
        </mxCell>
        <mxCell id="JpgJC43LP2yugee_lsow-82" value="publish()" style="edgeLabel;html=1;align=center;verticalAlign=middle;resizable=0;points=[];" vertex="1" connectable="0" parent="JpgJC43LP2yugee_lsow-78">
          <mxGeometry x="-0.6259" y="1" relative="1" as="geometry">
            <mxPoint x="24" as="offset" />
          </mxGeometry>
        </mxCell>
        <mxCell id="JpgJC43LP2yugee_lsow-41" value="handler_function" style="rounded=1;whiteSpace=wrap;html=1;" vertex="1" parent="WIyWlLk6GJQsqaUBKTNV-1">
          <mxGeometry x="-20" y="290" width="160" height="60" as="geometry" />
        </mxCell>
        <mxCell id="JpgJC43LP2yugee_lsow-44" style="edgeStyle=orthogonalEdgeStyle;rounded=0;orthogonalLoop=1;jettySize=auto;html=1;exitX=1;exitY=0.75;exitDx=0;exitDy=0;entryX=0;entryY=0.75;entryDx=0;entryDy=0;" edge="1" parent="WIyWlLk6GJQsqaUBKTNV-1" source="JpgJC43LP2yugee_lsow-48" target="JpgJC43LP2yugee_lsow-17">
          <mxGeometry relative="1" as="geometry">
            <Array as="points">
              <mxPoint x="444" y="305" />
              <mxPoint x="444" y="375" />
            </Array>
          </mxGeometry>
        </mxCell>
        <mxCell id="JpgJC43LP2yugee_lsow-45" style="edgeStyle=orthogonalEdgeStyle;rounded=0;orthogonalLoop=1;jettySize=auto;html=1;exitX=1;exitY=0.5;exitDx=0;exitDy=0;entryX=0;entryY=0.75;entryDx=0;entryDy=0;" edge="1" parent="WIyWlLk6GJQsqaUBKTNV-1" source="JpgJC43LP2yugee_lsow-48" target="JpgJC43LP2yugee_lsow-14">
          <mxGeometry relative="1" as="geometry">
            <Array as="points">
              <mxPoint x="474" y="290" />
              <mxPoint x="474" y="265" />
            </Array>
          </mxGeometry>
        </mxCell>
        <mxCell id="JpgJC43LP2yugee_lsow-46" value="publish()" style="edgeLabel;html=1;align=center;verticalAlign=middle;resizable=0;points=[];" vertex="1" connectable="0" parent="JpgJC43LP2yugee_lsow-45">
          <mxGeometry x="0.3119" relative="1" as="geometry">
            <mxPoint x="7" y="5" as="offset" />
          </mxGeometry>
        </mxCell>
        <mxCell id="JpgJC43LP2yugee_lsow-47" style="edgeStyle=orthogonalEdgeStyle;rounded=0;orthogonalLoop=1;jettySize=auto;html=1;exitX=1;exitY=0.25;exitDx=0;exitDy=0;entryX=0;entryY=0.75;entryDx=0;entryDy=0;" edge="1" parent="WIyWlLk6GJQsqaUBKTNV-1" source="JpgJC43LP2yugee_lsow-48" target="JpgJC43LP2yugee_lsow-11">
          <mxGeometry relative="1" as="geometry">
            <Array as="points">
              <mxPoint x="444" y="275" />
              <mxPoint x="444" y="155" />
            </Array>
          </mxGeometry>
        </mxCell>
        <mxCell id="JpgJC43LP2yugee_lsow-68" style="edgeStyle=orthogonalEdgeStyle;rounded=0;orthogonalLoop=1;jettySize=auto;html=1;exitX=0;exitY=0.25;exitDx=0;exitDy=0;entryX=1;entryY=0.25;entryDx=0;entryDy=0;" edge="1" parent="WIyWlLk6GJQsqaUBKTNV-1" source="JpgJC43LP2yugee_lsow-48" target="JpgJC43LP2yugee_lsow-26">
          <mxGeometry relative="1" as="geometry">
            <mxPoint x="-70" y="120" as="targetPoint" />
            <Array as="points">
              <mxPoint x="80" y="275" />
              <mxPoint x="80" y="125" />
            </Array>
          </mxGeometry>
        </mxCell>
        <mxCell id="JpgJC43LP2yugee_lsow-69" value="getInstance()" style="edgeLabel;html=1;align=center;verticalAlign=middle;resizable=0;points=[];" vertex="1" connectable="0" parent="JpgJC43LP2yugee_lsow-68">
          <mxGeometry x="-0.3072" relative="1" as="geometry">
            <mxPoint x="-36" y="-155" as="offset" />
          </mxGeometry>
        </mxCell>
        <mxCell id="JpgJC43LP2yugee_lsow-79" style="edgeStyle=orthogonalEdgeStyle;rounded=0;orthogonalLoop=1;jettySize=auto;html=1;exitX=0;exitY=0.5;exitDx=0;exitDy=0;entryX=1;entryY=0.75;entryDx=0;entryDy=0;" edge="1" parent="WIyWlLk6GJQsqaUBKTNV-1" target="JpgJC43LP2yugee_lsow-41">
          <mxGeometry relative="1" as="geometry">
            <mxPoint x="284" y="290" as="sourcePoint" />
            <mxPoint x="160" y="335" as="targetPoint" />
            <Array as="points">
              <mxPoint x="220" y="290" />
              <mxPoint x="220" y="335" />
            </Array>
          </mxGeometry>
        </mxCell>
        <mxCell id="JpgJC43LP2yugee_lsow-85" value="subscribe()" style="edgeLabel;html=1;align=center;verticalAlign=middle;resizable=0;points=[];" vertex="1" connectable="0" parent="JpgJC43LP2yugee_lsow-79">
          <mxGeometry x="0.6236" relative="1" as="geometry">
            <mxPoint x="14" y="5" as="offset" />
          </mxGeometry>
        </mxCell>
        <mxCell id="JpgJC43LP2yugee_lsow-48" value="Hander_Event" style="rounded=0;whiteSpace=wrap;html=1;" vertex="1" parent="WIyWlLk6GJQsqaUBKTNV-1">
          <mxGeometry x="264" y="260" width="160" height="60" as="geometry" />
        </mxCell>
        <mxCell id="JpgJC43LP2yugee_lsow-53" style="edgeStyle=orthogonalEdgeStyle;rounded=0;orthogonalLoop=1;jettySize=auto;html=1;exitX=1;exitY=0.75;exitDx=0;exitDy=0;entryX=0.25;entryY=0;entryDx=0;entryDy=0;" edge="1" parent="WIyWlLk6GJQsqaUBKTNV-1" source="JpgJC43LP2yugee_lsow-58" target="JpgJC43LP2yugee_lsow-11">
          <mxGeometry relative="1" as="geometry" />
        </mxCell>
        <mxCell id="JpgJC43LP2yugee_lsow-54" value="Initialization" style="edgeLabel;html=1;align=center;verticalAlign=middle;resizable=0;points=[];" vertex="1" connectable="0" parent="JpgJC43LP2yugee_lsow-53">
          <mxGeometry x="-0.1628" relative="1" as="geometry">
            <mxPoint x="-125" y="5" as="offset" />
          </mxGeometry>
        </mxCell>
        <mxCell id="JpgJC43LP2yugee_lsow-55" style="edgeStyle=orthogonalEdgeStyle;rounded=0;orthogonalLoop=1;jettySize=auto;html=1;exitX=1;exitY=0.5;exitDx=0;exitDy=0;entryX=1;entryY=0.5;entryDx=0;entryDy=0;" edge="1" parent="WIyWlLk6GJQsqaUBKTNV-1" source="JpgJC43LP2yugee_lsow-58" target="JpgJC43LP2yugee_lsow-14">
          <mxGeometry relative="1" as="geometry">
            <Array as="points">
              <mxPoint x="754" y="70" />
              <mxPoint x="754" y="250" />
            </Array>
          </mxGeometry>
        </mxCell>
        <mxCell id="JpgJC43LP2yugee_lsow-88" value="Initialization" style="edgeLabel;html=1;align=center;verticalAlign=middle;resizable=0;points=[];" vertex="1" connectable="0" parent="JpgJC43LP2yugee_lsow-55">
          <mxGeometry x="-0.8456" relative="1" as="geometry">
            <mxPoint x="-5" as="offset" />
          </mxGeometry>
        </mxCell>
        <mxCell id="JpgJC43LP2yugee_lsow-56" style="edgeStyle=orthogonalEdgeStyle;rounded=0;orthogonalLoop=1;jettySize=auto;html=1;exitX=1;exitY=0.25;exitDx=0;exitDy=0;entryX=1;entryY=0.5;entryDx=0;entryDy=0;" edge="1" parent="WIyWlLk6GJQsqaUBKTNV-1" source="JpgJC43LP2yugee_lsow-58" target="JpgJC43LP2yugee_lsow-17">
          <mxGeometry relative="1" as="geometry">
            <Array as="points">
              <mxPoint x="770" y="55" />
              <mxPoint x="770" y="360" />
            </Array>
          </mxGeometry>
        </mxCell>
        <mxCell id="JpgJC43LP2yugee_lsow-57" style="edgeStyle=orthogonalEdgeStyle;rounded=0;orthogonalLoop=1;jettySize=auto;html=1;exitX=0.5;exitY=1;exitDx=0;exitDy=0;entryX=0.5;entryY=0;entryDx=0;entryDy=0;" edge="1" parent="WIyWlLk6GJQsqaUBKTNV-1" source="JpgJC43LP2yugee_lsow-58" target="JpgJC43LP2yugee_lsow-48">
          <mxGeometry relative="1" as="geometry">
            <Array as="points">
              <mxPoint x="120" y="140" />
              <mxPoint x="344" y="140" />
            </Array>
            <mxPoint x="410" y="260" as="targetPoint" />
          </mxGeometry>
        </mxCell>
        <mxCell id="JpgJC43LP2yugee_lsow-65" style="edgeStyle=orthogonalEdgeStyle;rounded=0;orthogonalLoop=1;jettySize=auto;html=1;exitX=0;exitY=0.5;exitDx=0;exitDy=0;entryX=0.5;entryY=0;entryDx=0;entryDy=0;" edge="1" parent="WIyWlLk6GJQsqaUBKTNV-1" source="JpgJC43LP2yugee_lsow-58" target="JpgJC43LP2yugee_lsow-26">
          <mxGeometry relative="1" as="geometry" />
        </mxCell>
        <mxCell id="JpgJC43LP2yugee_lsow-66" value="Environment&lt;div&gt;Generation&lt;/div&gt;" style="edgeLabel;html=1;align=center;verticalAlign=middle;resizable=0;points=[];" vertex="1" connectable="0" parent="JpgJC43LP2yugee_lsow-65">
          <mxGeometry x="0.0284" relative="1" as="geometry">
            <mxPoint x="-64" as="offset" />
          </mxGeometry>
        </mxCell>
        <mxCell id="JpgJC43LP2yugee_lsow-58" value="Context_Brain" style="rounded=0;whiteSpace=wrap;html=1;" vertex="1" parent="WIyWlLk6GJQsqaUBKTNV-1">
          <mxGeometry x="40" y="40" width="160" height="60" as="geometry" />
        </mxCell>
        <mxCell id="JpgJC43LP2yugee_lsow-59" value="Initialization" style="edgeLabel;html=1;align=center;verticalAlign=middle;resizable=0;points=[];" vertex="1" connectable="0" parent="WIyWlLk6GJQsqaUBKTNV-1">
          <mxGeometry x="254.0028566353526" y="140.002789115606" as="geometry" />
        </mxCell>
        <mxCell id="JpgJC43LP2yugee_lsow-61" value="Initialization" style="edgeLabel;html=1;align=center;verticalAlign=middle;resizable=0;points=[];" vertex="1" connectable="0" parent="WIyWlLk6GJQsqaUBKTNV-1">
          <mxGeometry x="254.0028566353526" y="50.00278911560599" as="geometry" />
        </mxCell>
        <mxCell id="JpgJC43LP2yugee_lsow-62" value="publish()" style="edgeLabel;html=1;align=center;verticalAlign=middle;resizable=0;points=[];" vertex="1" connectable="0" parent="WIyWlLk6GJQsqaUBKTNV-1">
          <mxGeometry x="513.9968964875479" y="275.03433399785376" as="geometry">
            <mxPoint x="-3" y="-117" as="offset" />
          </mxGeometry>
        </mxCell>
        <mxCell id="JpgJC43LP2yugee_lsow-63" value="publish()" style="edgeLabel;html=1;align=center;verticalAlign=middle;resizable=0;points=[];" vertex="1" connectable="0" parent="WIyWlLk6GJQsqaUBKTNV-1">
          <mxGeometry x="514.0003963673068" y="380.00121691019194" as="geometry" />
        </mxCell>
        <mxCell id="JpgJC43LP2yugee_lsow-70" style="edgeStyle=orthogonalEdgeStyle;rounded=0;orthogonalLoop=1;jettySize=auto;html=1;exitX=1;exitY=0.5;exitDx=0;exitDy=0;entryX=0.5;entryY=0;entryDx=0;entryDy=0;" edge="1" parent="WIyWlLk6GJQsqaUBKTNV-1" source="JpgJC43LP2yugee_lsow-26" target="JpgJC43LP2yugee_lsow-41">
          <mxGeometry relative="1" as="geometry" />
        </mxCell>
        <mxCell id="JpgJC43LP2yugee_lsow-102" value="Initialization" style="edgeLabel;html=1;align=center;verticalAlign=middle;resizable=0;points=[];" vertex="1" connectable="0" parent="JpgJC43LP2yugee_lsow-70">
          <mxGeometry x="-0.0207" y="1" relative="1" as="geometry">
            <mxPoint x="-21" y="-7" as="offset" />
          </mxGeometry>
        </mxCell>
        <mxCell id="JpgJC43LP2yugee_lsow-108" value="&lt;h1 style=&quot;margin-top: 0px;&quot;&gt;Generation&lt;/h1&gt;&lt;p&gt;Lorem ipsum dolor sit amet, consectetur adipisicing elit, sed do eiusmod tempor incididunt ut labore et dolore magna aliqua.&lt;/p&gt;" style="text;html=1;whiteSpace=wrap;overflow=hidden;rounded=0;" vertex="1" parent="WIyWlLk6GJQsqaUBKTNV-1">
          <mxGeometry x="-800" y="40" width="180" height="120" as="geometry" />
        </mxCell>
        <mxCell id="JpgJC43LP2yugee_lsow-109" value="&lt;h1 style=&quot;margin-top: 0px;&quot;&gt;Component Functions&lt;/h1&gt;&lt;p&gt;Component Functions refer to functions that execute relative to a component. They come in two forms:&lt;br&gt;&lt;br&gt;&lt;b&gt;Local:&lt;/b&gt; Are defined on the component level and are used for interactions that only affect the component itself (i.e. Clicking a button changes it color).&lt;/p&gt;&lt;p&gt;&lt;b&gt;Non-Local: &lt;/b&gt;Are defined in src/functions/Functions.ts and are assigned to components in public/environment/Environment,.json. These functions are used for interactions that extend beyond the scope of a single function (i.e. Making an API call or modifying a different component).&lt;/p&gt;" style="text;html=1;whiteSpace=wrap;overflow=hidden;rounded=0;" vertex="1" parent="WIyWlLk6GJQsqaUBKTNV-1">
          <mxGeometry x="-800" y="200" width="420" height="270" as="geometry" />
        </mxCell>
        <mxCell id="JpgJC43LP2yugee_lsow-110" value="&lt;h1 style=&quot;margin-top: 0px;&quot;&gt;Handlers&lt;/h1&gt;&lt;p&gt;Lorem ipsum dolor sit amet, consectetur adipisicing elit, sed do eiusmod tempor incididunt ut labore et dolore magna aliqua.&lt;/p&gt;" style="text;html=1;whiteSpace=wrap;overflow=hidden;rounded=0;" vertex="1" parent="WIyWlLk6GJQsqaUBKTNV-1">
          <mxGeometry x="-560" y="40" width="180" height="120" as="geometry" />
        </mxCell>
      </root>
    </mxGraphModel>
  </diagram>
</mxfile>
